<?xml version="1.0" standalone="no"?>
<!DOCTYPE svg PUBLIC "-//W3C//DTD SVG 20010904//EN"
 "http://www.w3.org/TR/2001/REC-SVG-20010904/DTD/svg10.dtd">
<svg version="1.0" xmlns="http://www.w3.org/2000/svg"
 width="860.000000pt" height="860.000000pt" viewBox="0 0 860.000000 860.000000"
 preserveAspectRatio="xMidYMid meet">
<metadata>
Created by potrace 1.11, written by Peter Selinger 2001-2013
</metadata>
<g transform="translate(0.000000,860.000000) scale(0.100000,-0.100000)"
fill="#000000" stroke="none">
<path d="M1115 8145 c-104 -20 -131 -30 -199 -74 -128 -84 -229 -211 -318
-399 -123 -262 -210 -432 -246 -481 l-37 -51 -65 0 c-36 0 -87 7 -114 15 -67
20 -78 8 -46 -51 14 -25 35 -51 47 -59 12 -9 40 -39 63 -68 36 -49 46 -55 115
-77 l76 -24 92 30 92 30 66 89 c37 48 79 95 94 103 26 13 29 12 69 -26 60 -57
128 -101 218 -139 95 -39 157 -42 342 -16 116 16 120 17 214 77 95 60 98 63
168 173 l70 112 14 136 13 136 -27 102 c-51 189 -138 306 -291 390 -65 36
-101 48 -196 65 -132 25 -121 25 -214 7z"/>
<path d="M7245 8137 c-246 -50 -401 -196 -468 -439 -30 -109 -32 -148 -13
-293 12 -96 15 -104 77 -204 67 -109 89 -130 209 -201 56 -33 81 -40 177 -54
179 -26 247 -22 341 17 90 38 158 82 218 139 40 39 42 39 70 25 16 -8 56 -54
89 -101 l60 -85 95 -32 96 -32 77 23 c71 21 81 27 113 71 19 26 47 59 63 71
15 13 38 43 51 66 31 55 20 67 -46 47 -27 -8 -78 -15 -114 -14 -61 0 -67 2
-93 34 -33 40 -154 269 -198 375 -138 330 -311 529 -507 580 -115 30 -176 31
-297 7z"/>
<path d="M4416 8051 c-8 -13 -606 -1792 -606 -1803 0 -4 83 -8 184 -8 l184 0
138 413 c75 226 211 630 300 896 90 266 164 490 164 497 0 11 -35 14 -179 14
-99 0 -182 -4 -185 -9z"/>
<path d="M3043 7528 l-553 -292 0 -98 0 -98 83 -39 c45 -21 293 -140 551 -265
258 -124 470 -226 472 -226 2 0 4 69 4 154 0 113 -3 157 -12 163 -7 4 -163 76
-347 160 -184 84 -336 155 -339 157 -2 3 154 84 347 180 l351 176 0 160 c0 88
-1 160 -2 160 -2 0 -252 -132 -555 -292z"/>
<path d="M5050 7659 l0 -161 350 -171 c193 -94 349 -175 347 -180 -1 -4 -148
-74 -327 -156 -179 -81 -335 -153 -347 -160 -22 -11 -23 -16 -23 -166 0 -85 2
-155 5 -155 2 0 251 119 552 264 l548 263 3 100 3 101 -523 275 c-288 151
-538 282 -555 291 l-33 17 0 -162z"/>
<path d="M260 6643 c-50 -11 -76 -28 -127 -83 -49 -53 -50 -68 -93 -1130 l-40
-1005 20 -110 c31 -169 68 -254 154 -357 75 -91 116 -125 375 -310 177 -127
212 -144 341 -169 132 -25 249 -25 300 1 47 24 97 94 106 148 17 107 -27 185
-270 470 -83 98 -175 214 -203 258 l-53 80 0 210 0 211 43 31 c56 39 110 63
397 174 318 123 522 188 795 254 469 114 465 113 465 143 0 14 -14 170 -30
346 -17 176 -35 376 -41 445 -20 235 -57 308 -196 378 -41 21 -46 22 -966 24
-675 2 -938 0 -977 -9z"/>
<path d="M7340 6650 c-874 -5 -917 -6 -950 -24 -133 -72 -170 -144 -189 -376
-6 -69 -24 -269 -41 -445 -16 -176 -30 -332 -30 -346 0 -29 -3 -28 475 -145
264 -64 487 -136 800 -257 272 -106 327 -130 382 -169 l43 -31 0 -211 0 -210
-52 -80 c-29 -44 -121 -160 -204 -258 -241 -283 -285 -358 -270 -464 8 -58 56
-129 106 -154 51 -26 168 -26 300 -1 129 25 164 42 341 169 259 185 300 219
375 310 86 103 123 188 154 357 l20 110 -40 1005 c-43 1062 -44 1077 -93 1130
-52 55 -77 72 -133 85 -33 8 -63 13 -69 12 -5 -1 -422 -4 -925 -7z"/>
<path d="M4055 5419 c-368 -6 -536 -14 -985 -49 -411 -33 -1277 -237 -1750
-413 -124 -46 -260 -96 -302 -112 l-78 -28 0 -143 c0 -79 2 -144 5 -144 3 0
87 41 188 91 153 77 223 105 437 175 519 168 843 246 1435 346 l190 32 1025 0
1025 1 210 -27 c325 -43 468 -69 900 -167 271 -61 442 -105 530 -136 72 -26
209 -74 304 -107 96 -33 235 -87 308 -119 96 -42 135 -55 139 -45 3 7 3 57 2
112 l-3 99 -65 32 c-168 83 -567 226 -855 306 -185 52 -591 144 -827 188 -334
61 -1096 126 -1368 117 -30 -1 -239 -5 -465 -9z"/>
<path d="M2875 4921 c-22 -10 -54 -34 -71 -53 -59 -67 -59 -66 -46 -442 7
-187 19 -555 27 -816 9 -261 18 -499 21 -527 l5 -53 1489 0 1488 0 6 63 c3 34
26 404 52 822 l46 760 -21 57 c-27 71 -98 151 -162 184 l-48 24 -1373 -1
c-1298 0 -1375 -1 -1413 -18z m2760 -273 c-5 -35 -76 -982 -102 -1340 l-6 -88
-908 -2 c-500 -2 -1059 -3 -1241 -3 l-333 0 -12 185 c-6 102 -21 347 -33 545
-12 198 -27 445 -34 548 -6 103 -10 190 -7 193 2 2 606 4 1342 4 l1339 0 -5
-42z"/>
<path d="M4214 4141 c-50 -23 -112 -93 -120 -138 -27 -144 66 -263 204 -263
162 0 261 178 176 317 -54 88 -169 125 -260 84z"/>
<path d="M15 3773 c7 -157 26 -665 60 -1603 14 -393 28 -739 31 -768 l5 -52
282 2 282 3 0 698 c0 383 2 697 4 697 2 0 22 -15 45 -33 96 -78 388 -212 767
-352 235 -87 780 -230 921 -241 47 -4 91 -9 96 -13 8 -5 102 -1505 102 -1629
l0 -22 275 0 c163 0 275 4 275 9 0 10 56 780 84 1166 9 110 18 242 22 293 l7
92 31 0 c17 0 72 -5 121 -10 415 -43 1098 -60 1555 -37 157 7 287 13 288 11 4
-2 111 -1475 112 -1521 l0 -23 264 0 263 0 6 58 c4 31 36 408 73 837 36 429
67 781 68 782 1 2 74 14 162 28 87 13 182 32 209 40 28 9 167 45 310 80 401
99 839 260 1048 387 79 48 156 83 164 74 5 -4 -13 -862 -23 -1158 l-6 -178
286 0 286 0 0 48 c0 26 7 232 15 457 42 1098 73 1990 69 1994 -2 2 -31 -22
-66 -53 -62 -56 -107 -121 -251 -356 -47 -77 -103 -150 -169 -220 -94 -101
-107 -111 -320 -242 -196 -120 -253 -150 -469 -241 -198 -84 -295 -119 -510
-181 -513 -148 -618 -170 -1044 -220 -668 -79 -888 -91 -1700 -90 -778 0 -744
-2 -1275 79 -383 59 -568 99 -805 174 -340 107 -591 195 -690 241 -49 23 -123
55 -163 71 -165 66 -285 137 -467 276 -195 150 -330 322 -400 509 -22 60 -38
82 -123 167 -53 53 -100 97 -105 97 -5 0 -6 -57 -2 -127z"/>
<path d="M3013 2883 l-193 -3 0 -140 0 -140 1485 0 1485 0 0 145 0 145 -1292
-2 c-711 -2 -1380 -4 -1485 -5z"/>
</g>
</svg>
