<?xml version="1.0" encoding="UTF-8" standalone="no"?>
<!-- Created with Inkscape (http://www.inkscape.org/) -->

<svg
   xmlns:dc="http://purl.org/dc/elements/1.1/"
   xmlns:cc="http://creativecommons.org/ns#"
   xmlns:rdf="http://www.w3.org/1999/02/22-rdf-syntax-ns#"
   xmlns:svg="http://www.w3.org/2000/svg"
   xmlns="http://www.w3.org/2000/svg"
   xmlns:sodipodi="http://sodipodi.sourceforge.net/DTD/sodipodi-0.dtd"
   xmlns:inkscape="http://www.inkscape.org/namespaces/inkscape"
   width="60.583652mm"
   height="54.382mm"
   viewBox="0 0 60.583653 54.382"
   version="1.1"
   id="svg8"
   inkscape:version="0.92.2 (5c3e80d, 2017-08-06)"
   sodipodi:docname="Teaming360logo_only.svg">
  <defs
     id="defs2" />
  <sodipodi:namedview
     id="base"
     pagecolor="#ffffff"
     bordercolor="#666666"
     borderopacity="1.0"
     inkscape:pageopacity="0.0"
     inkscape:pageshadow="2"
     inkscape:zoom="0.7"
     inkscape:cx="436.93685"
     inkscape:cy="-208.25937"
     inkscape:document-units="mm"
     inkscape:current-layer="layer1"
     showgrid="false"
     fit-margin-top="0"
     fit-margin-left="0"
     fit-margin-right="0"
     fit-margin-bottom="0"
     inkscape:window-width="2560"
     inkscape:window-height="1377"
     inkscape:window-x="-8"
     inkscape:window-y="-8"
     inkscape:window-maximized="1" />
  <metadata
     id="metadata5">
    <rdf:RDF>
      <cc:Work
         rdf:about="">
        <dc:format>image/svg+xml</dc:format>
        <dc:type
           rdf:resource="http://purl.org/dc/dcmitype/StillImage" />
        <dc:title></dc:title>
      </cc:Work>
    </rdf:RDF>
  </metadata>
  <g
     inkscape:label="Layer 1"
     inkscape:groupmode="layer"
     id="layer1"
     transform="translate(-30.269229,-20.259151)">
    <g
       id="g934"
       transform="matrix(1.0000092,0,0,1.0000092,-12.095627,-1.3236137)">
      <path
         sodipodi:nodetypes="cccccccccccccccccccccccccccccccccccc"
         inkscape:connector-curvature="0"
         id="path826"
         d="m 47.727352,28.73863 0.60205,0.580802 0.720518,0.484282 1.051245,0.425224 c 0,0 1.015813,-0.01183 1.169366,0 0.153551,0.0118 1.582775,-0.236236 1.582775,-0.236236 l 1.334728,-0.862259 0.956752,-1.547339 0.21261,-1.889881 -0.425222,-1.559152 -0.551445,-0.938021 -0.853314,-0.796281 -1.023918,-0.522583 -1.58732,-0.294454 -0.850447,0.118117 -0.850445,0.236235 -0.850448,0.566965 -0.661458,0.661458 -0.709893,0.995054 -0.519716,1.008891 -0.512797,1.222691 -0.45458,0.883855 -0.519716,0.968564 -0.448847,0.543341 h -0.779576 l -0.614212,-0.188988 -0.236236,-0.02362 -0.09449,0.09449 0.358896,0.662646 c 0,0 -0.259858,-0.04725 0,0 0.25986,0.04725 0.875257,0.954726 0.875257,0.954726 l 1.068301,0.334782 1.335567,-0.440247 0.409705,-0.560047 0.464365,-0.644755 z"
         style="fill:#aa0000;fill-opacity:1;stroke:none;stroke-width:0.26458332px;stroke-linecap:butt;stroke-linejoin:miter;stroke-opacity:1" />
      <path
         sodipodi:nodetypes="cccccccccccccccccccccccccccccccccccc"
         inkscape:connector-curvature="0"
         id="path826-3"
         d="m 97.508217,28.738464 -0.60205,0.580802 -0.720518,0.484282 -1.051245,0.425224 c 0,0 -1.015813,-0.01183 -1.169366,0 -0.153551,0.0118 -1.582775,-0.236235 -1.582775,-0.236235 l -1.334728,-0.86226 -0.956752,-1.547338 -0.21261,-1.889882 0.425222,-1.559152 0.551445,-0.938021 0.853314,-0.796281 1.023918,-0.522583 1.58732,-0.294454 0.850447,0.118117 0.850445,0.236235 0.850448,0.566965 0.661458,0.661458 0.709893,0.995054 0.519716,1.008891 0.512797,1.222692 0.45458,0.883854 0.519714,0.968564 0.44885,0.543342 h 0.77958 l 0.61421,-0.188989 0.23623,-0.02362 0.0945,0.09449 -0.35889,0.662646 c 0,0 0.25986,-0.04725 0,0 -0.25986,0.04725 -0.87526,0.954727 -0.87526,0.954727 l -1.0683,0.334781 -1.335568,-0.440245 -0.409705,-0.560048 -0.464365,-0.644756 z"
         style="fill:#aa0000;fill-opacity:1;stroke:none;stroke-width:0.26458332px;stroke-linecap:butt;stroke-linejoin:miter;stroke-opacity:1" />
      <path
         inkscape:connector-curvature="0"
         id="path843"
         d="m 67.75974,26.212941 v -2.267858 l -7.843004,4.134115 v 1.393787 l 7.795757,3.756137 v -2.244233 l -4.984559,-2.267857 z"
         style="fill:#aa0000;fill-opacity:0.95686275;stroke:none;stroke-width:0.26458332px;stroke-linecap:butt;stroke-linejoin:miter;stroke-opacity:1" />
      <path
         inkscape:connector-curvature="0"
         id="path843-9"
         d="m 77.917853,26.212592 v -2.267857 l 7.843004,4.134115 v 1.393787 L 77.9651,33.228773 V 30.98454 l 4.984559,-2.267857 z"
         style="fill:#aa0000;fill-opacity:0.95686275;stroke:none;stroke-width:0.26458332px;stroke-linecap:butt;stroke-linejoin:miter;stroke-opacity:1" />
      <path
         inkscape:connector-curvature="0"
         id="path860"
         d="m 73.46571,22.297038 h 2.622584 l -4.293018,12.795529 h -2.622582 z"
         style="fill:#aa0000;fill-opacity:0.99215686;stroke:none;stroke-width:0.26458332px;stroke-linecap:butt;stroke-linejoin:miter;stroke-opacity:1" />
      <path
         sodipodi:nodetypes="ccccccccccccccccccccccccccccccccccccccc"
         inkscape:connector-curvature="0"
         id="path862"
         d="m 59.798618,40.788646 -0.637836,-6.80357 -0.165365,-0.54334 -0.307104,-0.543343 -0.519716,-0.377976 -0.661461,-0.330729 H 44.892181 l -0.236233,-0.02363 -0.781256,0.166059 -0.425223,0.34254 -0.329052,0.389094 -0.188986,0.661457 -0.566965,14.150485 0.259858,1.393785 0.07087,0.330729 0.377976,0.968566 1.015812,1.228423 1.346539,1.01581 1.913506,1.346542 0.661458,0.283482 1.299292,0.236233 h 1.157552 l 0.566965,-0.283483 0.401601,-0.590586 0.118115,-0.566966 -0.188995,-0.779575 -0.708705,-1.015811 -2.031621,-2.385975 -0.850448,-1.27567 v -2.905691 l 0.590587,-0.448847 0.921319,-0.401598 1.346539,-0.519719 1.393787,-0.54334 1.346541,-0.472471 1.488279,-0.47247 1.653646,-0.425222 1.937128,-0.448847 z"
         style="fill:#aa0000;fill-opacity:0.95686275;stroke:none;stroke-width:0.26458332px;stroke-linecap:butt;stroke-linejoin:miter;stroke-opacity:1" />
      <path
         sodipodi:nodetypes="ccccccccccccccccccccccccccccccccccccccc"
         inkscape:connector-curvature="0"
         id="path862-5"
         d="m 85.513407,40.788156 0.637836,-6.80357 0.165365,-0.54334 0.307104,-0.543343 0.519716,-0.377976 0.661461,-0.330729 h 12.614951 l 0.23624,-0.02363 0.78125,0.166059 0.42523,0.34254 0.32905,0.389094 0.18898,0.661457 0.56697,14.150485 -0.25986,1.393785 -0.0709,0.330729 -0.37798,0.968566 -1.01581,1.228423 -1.346536,1.01581 -1.913506,1.346541 -0.661458,0.283483 -1.299292,0.236233 H 94.844666 L 94.277701,54.39529 93.8761,53.804704 l -0.118115,-0.566966 0.188995,-0.779575 0.708705,-1.015811 2.031621,-2.385975 0.850448,-1.27567 v -2.905691 l -0.590587,-0.448847 -0.921319,-0.401598 -1.346539,-0.519719 -1.393787,-0.54334 -1.346541,-0.472471 -1.488279,-0.47247 -1.653646,-0.425222 -1.937128,-0.448847 z"
         style="fill:#aa0000;fill-opacity:0.95686275;stroke:none;stroke-width:0.26458332px;stroke-linecap:butt;stroke-linejoin:miter;stroke-opacity:1" />
      <path
         sodipodi:nodetypes="cccccccccccccccccccccccccccccccccccccccccccccccccccccccccccccc"
         inkscape:connector-curvature="0"
         id="path879"
         d="m 47.122957,59.998745 v 9.521476 h -4.00904 l -0.67858,-18.006499 0.763364,0.702276 0.684589,0.691509 0.384895,1.006028 0.365817,0.651672 0.550261,0.82969 0.936341,1.032516 1.6064,1.22842 0.874069,0.566966 1.063059,0.54334 1.133927,0.448847 1.252046,0.590587 2.574964,0.87407 3.071056,0.968565 2.385976,0.472469 3.354538,0.519719 2.527715,0.307104 3.330917,0.04725 4.299479,0.02363 2.385972,-0.09449 4.228611,-0.283483 5.24442,-0.614211 2.858444,-0.708705 3.756139,-1.086681 3.449032,-1.464659 3.118302,-1.913504 1.39379,-1.488281 1.03943,-1.700894 0.8032,-1.228422 0.92132,-0.850448 -0.63783,17.69401 h -3.992379 l 0.212611,-9.473027 -0.590587,0.212611 -0.897694,0.566965 -1.204799,0.566965 -1.346541,0.566965 -2.882067,0.992188 -2.95294,0.708704 -1.41741,0.401598 -2.078868,0.307107 -1.015812,11.835379 H 80.280202 L 79.500625,65.073629 75.649993,65.238995 70.71268,65.215364 67.830611,65.026377 65.421014,64.813763 64.617813,75.822321 H 60.767181 L 60.105723,64.175923 58.664688,64.034184 56.680313,63.538091 54.199844,62.900253 51.648507,61.955314 49.427896,61.033996 47.679757,60.112681 47.112792,59.616587 Z"
         style="fill:#aa0000;fill-opacity:0.99215686;stroke:none;stroke-width:0.26458332px;stroke-linecap:butt;stroke-linejoin:miter;stroke-opacity:1" />
      <path
         inkscape:connector-curvature="0"
         id="path881"
         d="m 48.955427,45.135373 v 2.078871 l 1.157552,-0.59059 1.55915,-0.779573 1.488281,-0.472473 1.700893,-0.566965 1.889881,-0.543341 2.504094,-0.61421 2.763951,-0.543341 2.622209,-0.425222 3.850632,-0.118118 h 8.504465 l 2.669455,0.118118 2.385975,0.283482 2.267858,0.377976 2.929316,0.661459 2.645833,0.590587 2.196986,0.779575 2.196986,0.755952 1.866257,0.826822 v -1.606396 l -0.992187,-0.472471 -1.606397,-0.637834 -1.866259,-0.661459 -1.464657,-0.448847 -1.700892,-0.472471 -2.102493,-0.47247 -1.511906,-0.330728 -2.315104,-0.425222 -4.063244,-0.448848 -3.49628,-0.141742 -5.646018,0.04725 -2.811198,0.165365 -3.543528,0.259858 -3.472656,0.614211 -3.09468,0.755952 -3.212796,0.874069 -2.267857,0.850448 z"
         style="fill:#aa0000;fill-opacity:0.99215686;stroke:none;stroke-width:0.26458332px;stroke-linecap:butt;stroke-linejoin:miter;stroke-opacity:1" />
      <path
         inkscape:connector-curvature="0"
         id="path883"
         d="M 62.223686,58.745919 V 60.78385 H 83.15423 v -2.088045 z"
         style="fill:#aa0000;fill-opacity:1;stroke:none;stroke-width:0.26458332px;stroke-linecap:butt;stroke-linejoin:miter;stroke-opacity:1" />
      <path
         id="path887"
         d="m 62.991925,44.26333 -0.534334,0.200506 -0.434597,0.367419 -0.317294,0.634587 0.4346,12.261265 H 83.154002 L 83.872304,46.234269 83.688852,45.583145 83.33797,45.048295 82.870298,44.580623 82.268786,44.26333 Z m 0.185002,1.769919 h 18.898589 l -0.77928,10.347172 -17.481621,0.04702 z"
         style="fill:#aa0000;fill-opacity:1;stroke:none;stroke-width:0.26458332px;stroke-linecap:butt;stroke-linejoin:miter;stroke-opacity:1"
         inkscape:connector-curvature="0" />
      <path
         d="m 72.529182,52.745758 a 1.483882,1.495039 0 0 1 -1.382765,-1.580303 1.483882,1.495039 0 0 1 1.558563,-1.404448 1.483882,1.495039 0 0 1 1.405097,1.56018 1.483882,1.495039 0 0 1 -1.538431,1.426802"
         sodipodi:open="true"
         sodipodi:end="1.6085757"
         sodipodi:start="1.6372327"
         sodipodi:ry="1.495039"
         sodipodi:rx="1.483882"
         sodipodi:cy="51.254017"
         sodipodi:cx="72.627693"
         sodipodi:type="arc"
         id="path894"
         style="fill:#aa0000;fill-opacity:1;stroke:none;stroke-width:0.35343593;stroke-opacity:1" />
    </g>
  </g>
</svg>
