<?xml version="1.0" encoding="UTF-8" standalone="no"?>
<!-- Created with Inkscape (http://www.inkscape.org/) -->

<svg
   xmlns:dc="http://purl.org/dc/elements/1.1/"
   xmlns:cc="http://creativecommons.org/ns#"
   xmlns:rdf="http://www.w3.org/1999/02/22-rdf-syntax-ns#"
   xmlns:svg="http://www.w3.org/2000/svg"
   xmlns="http://www.w3.org/2000/svg"
   xmlns:sodipodi="http://sodipodi.sourceforge.net/DTD/sodipodi-0.dtd"
   xmlns:inkscape="http://www.inkscape.org/namespaces/inkscape"
   width="194.41295mm"
   height="54.382mm"
   viewBox="0 0 194.41295 54.382"
   version="1.1"
   id="svg8"
   inkscape:version="0.92.2 (5c3e80d, 2017-08-06)"
   sodipodi:docname="Teaming360logo_full.svg">
  <defs
     id="defs2" />
  <sodipodi:namedview
     id="base"
     pagecolor="#ffffff"
     bordercolor="#666666"
     borderopacity="1.0"
     inkscape:pageopacity="0.0"
     inkscape:pageshadow="2"
     inkscape:zoom="0.7"
     inkscape:cx="436.93685"
     inkscape:cy="-208.25938"
     inkscape:document-units="mm"
     inkscape:current-layer="layer1"
     showgrid="false"
     fit-margin-top="0"
     fit-margin-left="0"
     fit-margin-right="0"
     fit-margin-bottom="0"
     inkscape:window-width="2560"
     inkscape:window-height="1377"
     inkscape:window-x="-8"
     inkscape:window-y="-8"
     inkscape:window-maximized="1" />
  <metadata
     id="metadata5">
    <rdf:RDF>
      <cc:Work
         rdf:about="">
        <dc:format>image/svg+xml</dc:format>
        <dc:type
           rdf:resource="http://purl.org/dc/dcmitype/StillImage" />
        <dc:title></dc:title>
      </cc:Work>
    </rdf:RDF>
  </metadata>
  <g
     inkscape:label="Layer 1"
     inkscape:groupmode="layer"
     id="layer1"
     transform="translate(-30.269229,-20.259151)">
    <g
       id="g934"
       transform="matrix(1.0000092,0,0,1.0000092,-12.095627,-1.3236137)">
      <path
         sodipodi:nodetypes="cccccccccccccccccccccccccccccccccccc"
         inkscape:connector-curvature="0"
         id="path826"
         d="m 47.727352,28.73863 0.60205,0.580802 0.720518,0.484282 1.051245,0.425224 c 0,0 1.015813,-0.01183 1.169366,0 0.153551,0.0118 1.582775,-0.236236 1.582775,-0.236236 l 1.334728,-0.862259 0.956752,-1.547339 0.21261,-1.889881 -0.425222,-1.559152 -0.551445,-0.938021 -0.853314,-0.796281 -1.023918,-0.522583 -1.58732,-0.294454 -0.850447,0.118117 -0.850445,0.236235 -0.850448,0.566965 -0.661458,0.661458 -0.709893,0.995054 -0.519716,1.008891 -0.512797,1.222691 -0.45458,0.883855 -0.519716,0.968564 -0.448847,0.543341 h -0.779576 l -0.614212,-0.188988 -0.236236,-0.02362 -0.09449,0.09449 0.358896,0.662646 c 0,0 -0.259858,-0.04725 0,0 0.25986,0.04725 0.875257,0.954726 0.875257,0.954726 l 1.068301,0.334782 1.335567,-0.440247 0.409705,-0.560047 0.464365,-0.644755 z"
         style="fill:#aa0000;fill-opacity:1;stroke:none;stroke-width:0.26458332px;stroke-linecap:butt;stroke-linejoin:miter;stroke-opacity:1" />
      <path
         sodipodi:nodetypes="cccccccccccccccccccccccccccccccccccc"
         inkscape:connector-curvature="0"
         id="path826-3"
         d="m 97.508217,28.738464 -0.60205,0.580802 -0.720518,0.484282 -1.051245,0.425224 c 0,0 -1.015813,-0.01183 -1.169366,0 -0.153551,0.0118 -1.582775,-0.236235 -1.582775,-0.236235 l -1.334728,-0.86226 -0.956752,-1.547338 -0.21261,-1.889882 0.425222,-1.559152 0.551445,-0.938021 0.853314,-0.796281 1.023918,-0.522583 1.58732,-0.294454 0.850447,0.118117 0.850445,0.236235 0.850448,0.566965 0.661458,0.661458 0.709893,0.995054 0.519716,1.008891 0.512797,1.222692 0.45458,0.883854 0.519714,0.968564 0.44885,0.543342 h 0.77958 l 0.61421,-0.188989 0.23623,-0.02362 0.0945,0.09449 -0.35889,0.662646 c 0,0 0.25986,-0.04725 0,0 -0.25986,0.04725 -0.87526,0.954727 -0.87526,0.954727 l -1.0683,0.334781 -1.335568,-0.440245 -0.409705,-0.560048 -0.464365,-0.644756 z"
         style="fill:#aa0000;fill-opacity:1;stroke:none;stroke-width:0.26458332px;stroke-linecap:butt;stroke-linejoin:miter;stroke-opacity:1" />
      <path
         inkscape:connector-curvature="0"
         id="path843"
         d="m 67.75974,26.212941 v -2.267858 l -7.843004,4.134115 v 1.393787 l 7.795757,3.756137 v -2.244233 l -4.984559,-2.267857 z"
         style="fill:#aa0000;fill-opacity:0.95686275;stroke:none;stroke-width:0.26458332px;stroke-linecap:butt;stroke-linejoin:miter;stroke-opacity:1" />
      <path
         inkscape:connector-curvature="0"
         id="path843-9"
         d="m 77.917853,26.212592 v -2.267857 l 7.843004,4.134115 v 1.393787 L 77.9651,33.228773 V 30.98454 l 4.984559,-2.267857 z"
         style="fill:#aa0000;fill-opacity:0.95686275;stroke:none;stroke-width:0.26458332px;stroke-linecap:butt;stroke-linejoin:miter;stroke-opacity:1" />
      <path
         inkscape:connector-curvature="0"
         id="path860"
         d="m 73.46571,22.297038 h 2.622584 l -4.293018,12.795529 h -2.622582 z"
         style="fill:#aa0000;fill-opacity:0.99215686;stroke:none;stroke-width:0.26458332px;stroke-linecap:butt;stroke-linejoin:miter;stroke-opacity:1" />
      <path
         sodipodi:nodetypes="ccccccccccccccccccccccccccccccccccccccc"
         inkscape:connector-curvature="0"
         id="path862"
         d="m 59.798618,40.788646 -0.637836,-6.80357 -0.165365,-0.54334 -0.307104,-0.543343 -0.519716,-0.377976 -0.661461,-0.330729 H 44.892181 l -0.236233,-0.02363 -0.781256,0.166059 -0.425223,0.34254 -0.329052,0.389094 -0.188986,0.661457 -0.566965,14.150485 0.259858,1.393785 0.07087,0.330729 0.377976,0.968566 1.015812,1.228423 1.346539,1.01581 1.913506,1.346542 0.661458,0.283482 1.299292,0.236233 h 1.157552 l 0.566965,-0.283483 0.401601,-0.590586 0.118115,-0.566966 -0.188995,-0.779575 -0.708705,-1.015811 -2.031621,-2.385975 -0.850448,-1.27567 v -2.905691 l 0.590587,-0.448847 0.921319,-0.401598 1.346539,-0.519719 1.393787,-0.54334 1.346541,-0.472471 1.488279,-0.47247 1.653646,-0.425222 1.937128,-0.448847 z"
         style="fill:#aa0000;fill-opacity:0.95686275;stroke:none;stroke-width:0.26458332px;stroke-linecap:butt;stroke-linejoin:miter;stroke-opacity:1" />
      <path
         sodipodi:nodetypes="ccccccccccccccccccccccccccccccccccccccc"
         inkscape:connector-curvature="0"
         id="path862-5"
         d="m 85.513407,40.788156 0.637836,-6.80357 0.165365,-0.54334 0.307104,-0.543343 0.519716,-0.377976 0.661461,-0.330729 h 12.614951 l 0.23624,-0.02363 0.78125,0.166059 0.42523,0.34254 0.32905,0.389094 0.18898,0.661457 0.56697,14.150485 -0.25986,1.393785 -0.0709,0.330729 -0.37798,0.968566 -1.01581,1.228423 -1.346536,1.01581 -1.913506,1.346541 -0.661458,0.283483 -1.299292,0.236233 H 94.844666 L 94.277701,54.39529 93.8761,53.804704 l -0.118115,-0.566966 0.188995,-0.779575 0.708705,-1.015811 2.031621,-2.385975 0.850448,-1.27567 v -2.905691 l -0.590587,-0.448847 -0.921319,-0.401598 -1.346539,-0.519719 -1.393787,-0.54334 -1.346541,-0.472471 -1.488279,-0.47247 -1.653646,-0.425222 -1.937128,-0.448847 z"
         style="fill:#aa0000;fill-opacity:0.95686275;stroke:none;stroke-width:0.26458332px;stroke-linecap:butt;stroke-linejoin:miter;stroke-opacity:1" />
      <path
         sodipodi:nodetypes="cccccccccccccccccccccccccccccccccccccccccccccccccccccccccccccc"
         inkscape:connector-curvature="0"
         id="path879"
         d="m 47.122957,59.998745 v 9.521476 h -4.00904 l -0.67858,-18.006499 0.763364,0.702276 0.684589,0.691509 0.384895,1.006028 0.365817,0.651672 0.550261,0.82969 0.936341,1.032516 1.6064,1.22842 0.874069,0.566966 1.063059,0.54334 1.133927,0.448847 1.252046,0.590587 2.574964,0.87407 3.071056,0.968565 2.385976,0.472469 3.354538,0.519719 2.527715,0.307104 3.330917,0.04725 4.299479,0.02363 2.385972,-0.09449 4.228611,-0.283483 5.24442,-0.614211 2.858444,-0.708705 3.756139,-1.086681 3.449032,-1.464659 3.118302,-1.913504 1.39379,-1.488281 1.03943,-1.700894 0.8032,-1.228422 0.92132,-0.850448 -0.63783,17.69401 h -3.992379 l 0.212611,-9.473027 -0.590587,0.212611 -0.897694,0.566965 -1.204799,0.566965 -1.346541,0.566965 -2.882067,0.992188 -2.95294,0.708704 -1.41741,0.401598 -2.078868,0.307107 -1.015812,11.835379 H 80.280202 L 79.500625,65.073629 75.649993,65.238995 70.71268,65.215364 67.830611,65.026377 65.421014,64.813763 64.617813,75.822321 H 60.767181 L 60.105723,64.175923 58.664688,64.034184 56.680313,63.538091 54.199844,62.900253 51.648507,61.955314 49.427896,61.033996 47.679757,60.112681 47.112792,59.616587 Z"
         style="fill:#aa0000;fill-opacity:0.99215686;stroke:none;stroke-width:0.26458332px;stroke-linecap:butt;stroke-linejoin:miter;stroke-opacity:1" />
      <path
         inkscape:connector-curvature="0"
         id="path881"
         d="m 48.955427,45.135373 v 2.078871 l 1.157552,-0.59059 1.55915,-0.779573 1.488281,-0.472473 1.700893,-0.566965 1.889881,-0.543341 2.504094,-0.61421 2.763951,-0.543341 2.622209,-0.425222 3.850632,-0.118118 h 8.504465 l 2.669455,0.118118 2.385975,0.283482 2.267858,0.377976 2.929316,0.661459 2.645833,0.590587 2.196986,0.779575 2.196986,0.755952 1.866257,0.826822 v -1.606396 l -0.992187,-0.472471 -1.606397,-0.637834 -1.866259,-0.661459 -1.464657,-0.448847 -1.700892,-0.472471 -2.102493,-0.47247 -1.511906,-0.330728 -2.315104,-0.425222 -4.063244,-0.448848 -3.49628,-0.141742 -5.646018,0.04725 -2.811198,0.165365 -3.543528,0.259858 -3.472656,0.614211 -3.09468,0.755952 -3.212796,0.874069 -2.267857,0.850448 z"
         style="fill:#aa0000;fill-opacity:0.99215686;stroke:none;stroke-width:0.26458332px;stroke-linecap:butt;stroke-linejoin:miter;stroke-opacity:1" />
      <path
         inkscape:connector-curvature="0"
         id="path883"
         d="M 62.223686,58.745919 V 60.78385 H 83.15423 v -2.088045 z"
         style="fill:#aa0000;fill-opacity:1;stroke:none;stroke-width:0.26458332px;stroke-linecap:butt;stroke-linejoin:miter;stroke-opacity:1" />
      <path
         id="path887"
         d="m 62.991925,44.26333 -0.534334,0.200506 -0.434597,0.367419 -0.317294,0.634587 0.4346,12.261265 H 83.154002 L 83.872304,46.234269 83.688852,45.583145 83.33797,45.048295 82.870298,44.580623 82.268786,44.26333 Z m 0.185002,1.769919 h 18.898589 l -0.77928,10.347172 -17.481621,0.04702 z"
         style="fill:#aa0000;fill-opacity:1;stroke:none;stroke-width:0.26458332px;stroke-linecap:butt;stroke-linejoin:miter;stroke-opacity:1"
         inkscape:connector-curvature="0" />
      <path
         d="m 72.529182,52.745758 a 1.483882,1.495039 0 0 1 -1.382765,-1.580303 1.483882,1.495039 0 0 1 1.558563,-1.404448 1.483882,1.495039 0 0 1 1.405097,1.56018 1.483882,1.495039 0 0 1 -1.538431,1.426802"
         sodipodi:open="true"
         sodipodi:end="1.6085757"
         sodipodi:start="1.6372327"
         sodipodi:ry="1.495039"
         sodipodi:rx="1.483882"
         sodipodi:cy="51.254017"
         sodipodi:cx="72.627693"
         sodipodi:type="arc"
         id="path894"
         style="fill:#aa0000;fill-opacity:1;stroke:none;stroke-width:0.35343593;stroke-opacity:1" />
    </g>
    <g
       id="g951"
       transform="translate(0.30411169,2.7966682)"
       style="fill:#000000">
      <path
         style="fill:#000000;stroke-width:0.26458332"
         d="m 176.73776,46.018366 c 0.19099,-0.07643 0.4192,-0.06703 0.50711,0.02089 0.0879,0.08792 -0.0683,0.150453 -0.34726,0.138964 -0.30823,-0.0127 -0.37092,-0.07539 -0.15985,-0.159852 z m 6.77829,-8.947385 c 1.7e-4,-3.4925 0.0378,-4.884656 0.0837,-3.09368 0.0458,1.790975 0.0457,4.648475 -2.6e-4,6.35 -0.0461,1.701524 -0.0836,0.23618 -0.0834,-3.25632 z m -77.43549,4.707662 c 0.32911,-0.06329 0.80536,-0.06088 1.05833,0.0053 0.25296,0.06622 -0.0163,0.118003 -0.5984,0.115066 -0.58208,-0.0029 -0.78905,-0.05712 -0.45993,-0.120406 z m 12.71345,0.0064 c 0.19099,-0.07643 0.4192,-0.06703 0.50711,0.02089 0.0879,0.08792 -0.0683,0.150453 -0.34726,0.138964 -0.30823,-0.01269 -0.37092,-0.07539 -0.15985,-0.159852 z m 19.69856,-0.0091 c 0.40218,-0.06082 0.99749,-0.05919 1.32291,0.0036 0.32542,0.0628 -0.004,0.11256 -0.73124,0.110573 -0.7276,-0.002 -0.99386,-0.05337 -0.59167,-0.114185 z m 49.87032,0.01463 c 0.1819,-0.0734 0.47955,-0.0734 0.66145,0 0.1819,0.0734 0.0331,0.133453 -0.33073,0.133453 -0.3638,0 -0.51263,-0.06005 -0.33072,-0.133453 z m 2.66236,-0.0055 c 0.191,-0.07643 0.41921,-0.06703 0.50712,0.02089 0.0879,0.08792 -0.0683,0.150453 -0.34726,0.138964 -0.30823,-0.01269 -0.37092,-0.07539 -0.15986,-0.159852 z m 11.37709,0 c 0.19099,-0.07643 0.4192,-0.06703 0.50712,0.02089 0.0879,0.08792 -0.0684,0.150453 -0.34727,0.138964 -0.30823,-0.01269 -0.37092,-0.07539 -0.15985,-0.159852 z m 2.11666,0 c 0.191,-0.07643 0.41921,-0.06703 0.50712,0.02089 0.0879,0.08792 -0.0683,0.150453 -0.34726,0.138964 -0.30823,-0.01269 -0.37092,-0.07539 -0.15986,-0.159852 z m 11.90625,0 c 0.191,-0.07643 0.4192,-0.06703 0.50712,0.02089 0.0879,0.08792 -0.0683,0.150453 -0.34726,0.138964 -0.30823,-0.01269 -0.37092,-0.07539 -0.15986,-0.159852 z m 2.11667,0 c 0.191,-0.07643 0.4192,-0.06703 0.50712,0.02089 0.0879,0.08792 -0.0683,0.150453 -0.34727,0.138964 -0.30822,-0.01269 -0.37092,-0.07539 -0.15985,-0.159852 z M 104.20334,41.524801 c -0.097,-0.09701 -0.17639,-2.769698 -0.17639,-5.939298 v -5.76291 l -1.38906,-0.105206 -1.38907,-0.105207 1.45521,0.02523 1.45521,0.02523 0.13229,6.019575 c 0.0728,3.310767 0.12237,6.019439 0.11025,6.019271 -0.0121,-1.67e-4 -0.10143,-0.07968 -0.19844,-0.176693 z m 57.41458,0 c -0.097,-0.09701 -0.17639,-1.81469 -0.17639,-3.817058 0,-2.676934 -0.0875,-3.670059 -0.33073,-3.751693 -0.19039,-0.06391 -0.16232,-0.09882 0.0661,-0.08226 0.3286,0.02381 0.4096,0.663534 0.47085,3.718866 0.051,2.54526 0.17415,3.753755 0.39687,3.895267 0.19795,0.125771 0.21198,0.206731 0.0363,0.209215 -0.15765,0.0022 -0.36601,-0.07532 -0.46302,-0.172337 z m -24.98944,-3.726216 c -0.0472,-3.079639 -0.12762,-3.770312 -0.43904,-3.770312 -0.20969,0 -0.44798,-0.107959 -0.52953,-0.239909 -0.0815,-0.13195 0.10009,-0.174959 0.40365,-0.09558 0.30356,0.07938 0.605,0.282645 0.66987,0.451695 0.0649,0.169049 0.0808,1.9087 0.0354,3.865889 l -0.0826,3.558527 z m 5.86745,0.06615 c 5.3e-4,-2.037292 0.0419,-2.835754 0.0923,-1.774362 0.0503,1.061393 0.05,2.728268 -7.9e-4,3.704167 -0.0507,0.975899 -0.0919,0.107487 -0.0915,-1.929805 z m 5.82083,0 c 5.3e-4,-2.037292 0.0419,-2.835754 0.0923,-1.774362 0.0503,1.061393 0.05,2.728268 -7.9e-4,3.704167 -0.0507,0.975899 -0.0919,0.107487 -0.0915,-1.929805 z m 10.3271,-2.116667 c 2e-4,-3.201458 0.0384,-4.474781 0.0849,-2.829606 0.0465,1.645175 0.0463,4.26455 -2.7e-4,5.820833 -0.0468,1.556284 -0.0848,0.210232 -0.0846,-2.991227 z m 12.95833,1.719792 c 0,-2.255573 0.0406,-3.178307 0.0902,-2.050521 0.0496,1.127787 0.0496,2.973256 0,4.101042 -0.0496,1.127787 -0.0902,0.205052 -0.0902,-2.050521 z m -41.45205,3.406752 c 0.17948,-0.180821 0.39297,-0.262115 0.47444,-0.180653 0.0815,0.08146 -0.0654,0.229406 -0.32632,0.328765 -0.37709,0.143586 -0.40748,0.113195 -0.14812,-0.148112 z m 55.07014,-0.165606 c -0.32911,-0.419644 -0.31975,-0.429002 0.0999,-0.09989 0.44073,0.345644 0.58088,0.562916 0.36312,0.562916 -0.0549,0 -0.2633,-0.208359 -0.46302,-0.463021 z m -6.36586,-2.628136 c 0.191,-0.07643 0.4192,-0.06703 0.50712,0.02089 0.0879,0.08792 -0.0683,0.150453 -0.34726,0.138965 -0.30823,-0.0127 -0.37092,-0.07539 -0.15986,-0.159853 z m 10.03763,-0.523655 c 0.1819,-0.0734 0.47956,-0.0734 0.66146,0 0.1819,0.0734 0.0331,0.133452 -0.33073,0.133452 -0.3638,0 -0.51263,-0.06005 -0.33073,-0.133452 z m 6.99689,-0.48623 c 0.005,-0.436562 0.0647,-0.583125 0.13178,-0.325693 0.0671,0.25743 0.0627,0.614618 -0.01,0.79375 -0.0725,0.179131 -0.12735,-0.03149 -0.12196,-0.468057 z m 9.26042,-0.529166 c 0.005,-0.436563 0.0647,-0.583125 0.13177,-0.325694 0.0671,0.257431 0.0627,0.614618 -0.01,0.79375 -0.0725,0.179131 -0.12735,-0.03149 -0.12196,-0.468056 z m -93.13333,-0.529167 c 0.005,-0.436563 0.0647,-0.583125 0.13177,-0.325694 0.0671,0.257431 0.0627,0.614619 -0.01,0.79375 -0.0725,0.179132 -0.12736,-0.03149 -0.12197,-0.468056 z m 65.36188,-0.132292 c 0,-0.509323 0.0545,-0.717682 0.12101,-0.463021 0.0665,0.254662 0.0665,0.671381 0,0.926042 -0.0666,0.254661 -0.12101,0.0463 -0.12101,-0.463021 z m 46.81165,-0.529167 c 0,-0.363802 0.06,-0.51263 0.13345,-0.330729 0.0734,0.181901 0.0734,0.479558 0,0.661459 -0.0734,0.181901 -0.13345,0.03307 -0.13345,-0.33073 z m -35.4298,-0.182384 c 0.25466,-0.06655 0.67138,-0.06655 0.92604,0 0.25466,0.06655 0.0463,0.121 -0.46302,0.121 -0.50932,0 -0.71768,-0.05445 -0.46302,-0.121 z m -15.65567,-0.501122 c 0.0127,-0.308225 0.0754,-0.37092 0.15985,-0.159853 0.0764,0.190996 0.067,0.419199 -0.0209,0.507118 -0.0879,0.08792 -0.15045,-0.06835 -0.13896,-0.347265 z m -50.77911,-0.63941 c 0,-0.363802 0.0601,-0.51263 0.13345,-0.330729 0.0734,0.181901 0.0734,0.479557 0,0.661458 -0.0734,0.181901 -0.13345,0.03307 -0.13345,-0.330729 z m 97.39695,-0.529167 c 0,-0.654844 0.0516,-0.922734 0.11466,-0.595312 0.0631,0.327422 0.0631,0.863203 0,1.190625 -0.0631,0.327422 -0.11466,0.05953 -0.11466,-0.595313 z m -86.81362,0 c 0,-0.363802 0.06,-0.51263 0.13345,-0.330729 0.0734,0.181901 0.0734,0.479557 0,0.661458 -0.0734,0.181901 -0.13345,0.03307 -0.13345,-0.330729 z m 54.48328,0.110243 c 0.0127,-0.308224 0.0754,-0.370919 0.15985,-0.159852 0.0764,0.190996 0.067,0.419199 -0.0209,0.507118 -0.0879,0.08792 -0.15045,-0.06835 -0.13896,-0.347266 z m 23.5786,-0.242535 c 0.005,-0.436562 0.0647,-0.583124 0.13178,-0.325693 0.0671,0.257431 0.0627,0.614618 -0.01,0.79375 -0.0725,0.179131 -0.12735,-0.03149 -0.12196,-0.468057 z m -75.67083,-1.058333 c 0.005,-0.436562 0.0647,-0.583125 0.13178,-0.325694 0.0671,0.257431 0.0627,0.614619 -0.01,0.793751 -0.0725,0.179131 -0.12735,-0.03149 -0.12196,-0.468057 z m 58.42134,0.0324 c 0,-0.05494 0.20836,-0.263302 0.46302,-0.463021 0.41964,-0.329107 0.429,-0.319749 0.0999,0.0999 -0.34564,0.440729 -0.56291,0.580887 -0.56291,0.363126 z m 8.46666,-0.561564 c 0,-0.218281 0.0468,-0.396875 0.10399,-0.396875 0.0572,0 0.17251,0.178594 0.25628,0.396875 0.0838,0.218282 0.037,0.396875 -0.10399,0.396875 -0.14095,0 -0.25628,-0.178593 -0.25628,-0.396875 z m 1.92187,-0.05757 c 0.40218,-0.06082 0.9975,-0.05919 1.32292,0.0036 0.32542,0.0628 -0.004,0.11256 -0.73124,0.110574 -0.72761,-0.002 -0.99386,-0.05337 -0.59168,-0.114186 z m -83.04179,-0.670036 -0.50403,-0.595312 0.59531,0.504028 c 0.55945,0.473662 0.71576,0.686597 0.50403,0.686597 -0.0502,0 -0.3181,-0.267891 -0.59531,-0.595313 z m 49.33617,-0.396875 c -0.3291,-0.419644 -0.31974,-0.429002 0.0999,-0.0999 0.44073,0.345644 0.58089,0.562916 0.36313,0.562916 -0.0549,0 -0.2633,-0.208359 -0.46303,-0.463021 z m 45.80667,-0.16604 c 0,-0.05494 0.20836,-0.263302 0.46302,-0.463021 0.41965,-0.329108 0.429,-0.319749 0.0999,0.0999 -0.34565,0.440729 -0.56292,0.580887 -0.56292,0.363126 z m -60.65573,-0.620671 c 0.47295,-0.05869 1.24685,-0.05869 1.71979,0 0.47295,0.05869 0.086,0.106713 -0.85989,0.106713 -0.94589,0 -1.33284,-0.04802 -0.8599,-0.106713 z m -46.16979,-0.262693 c 0.40018,-0.06062 1.05503,-0.06062 1.45521,0 0.40018,0.06062 0.0728,0.110222 -0.7276,0.110222 -0.80037,0 -1.12779,-0.0496 -0.72761,-0.110222 z m 108.09883,0.0088 c 0.19099,-0.07643 0.4192,-0.06703 0.50712,0.02089 0.0879,0.08792 -0.0684,0.150453 -0.34727,0.138964 -0.30823,-0.0127 -0.37092,-0.07539 -0.15985,-0.159852 z m -13.11341,-0.266227 c 0.25466,-0.06655 0.67138,-0.06655 0.92604,0 0.25466,0.06655 0.0463,0.121 -0.46302,0.121 -0.50933,0 -0.71769,-0.05445 -0.46302,-0.121 z m -9.0104,-0.743658 c 0.005,-0.436562 0.0647,-0.583124 0.13177,-0.325693 0.0671,0.257431 0.0627,0.614618 -0.01,0.79375 -0.0725,0.179131 -0.12735,-0.03149 -0.12196,-0.468057 z m -83.37444,-0.02205 c 0.0127,-0.308225 0.0754,-0.37092 0.15985,-0.159853 0.0764,0.190996 0.067,0.4192 -0.0209,0.507119 -0.0879,0.08792 -0.15045,-0.06835 -0.13896,-0.347266 z m 44.54869,0.227446 1.9734,-0.09494 0.0991,-1.775021 0.0991,-1.775021 -0.0211,1.852083 -0.0211,1.852084 -2.05139,0.01788 -2.05139,0.01788 1.9734,-0.09494 z m -55.88528,-1.396023 c 0,-0.509323 0.0544,-0.717682 0.121,-0.46302 0.0665,0.254661 0.0665,0.67138 0,0.926041 -0.0666,0.254662 -0.121,0.0463 -0.121,-0.463021 z m 54.9058,-2.308065 c 0.47295,-0.05869 1.24685,-0.05869 1.71979,0 0.47295,0.05869 0.086,0.106712 -0.85989,0.106712 -0.94589,0 -1.33284,-0.04802 -0.8599,-0.106712 z m 33.47483,0.008 c 0.25743,-0.06708 0.61462,-0.06267 0.79375,0.0098 0.17913,0.07248 -0.0315,0.127362 -0.46806,0.12197 -0.43656,-0.0054 -0.58312,-0.06469 -0.32569,-0.131774 z m 2.24392,0.0081 c 0.1819,-0.0734 0.47956,-0.0734 0.66146,0 0.1819,0.0734 0.0331,0.133452 -0.33073,0.133452 -0.3638,0 -0.51263,-0.06005 -0.33073,-0.133452 z m 12.17083,0 c 0.18191,-0.0734 0.47956,-0.0734 0.66146,0 0.1819,0.0734 0.0331,0.133452 -0.33073,0.133452 -0.3638,0 -0.51263,-0.06005 -0.33073,-0.133452 z m 2.11667,0 c 0.1819,-0.0734 0.47956,-0.0734 0.66146,0 0.1819,0.0734 0.0331,0.133452 -0.33073,0.133452 -0.3638,0 -0.51263,-0.06005 -0.33073,-0.133452 z m 11.77396,-0.0072 c 0.25466,-0.06655 0.67138,-0.06655 0.92604,0 0.25466,0.06655 0.0463,0.121 -0.46302,0.121 -0.50932,0 -0.71768,-0.05445 -0.46302,-0.121 z"
         id="path965"
         inkscape:connector-curvature="0" />
      <path
         style="fill:#000000;stroke-width:0.26458332"
         d="m 128.88486,37.394816 c 0.12878,-1.090073 0.1343,-1.095588 0.22404,-0.224045 0.0506,0.491447 -0.009,0.99436 -0.13203,1.117584 -0.12323,0.123225 -0.16463,-0.278868 -0.092,-0.893539 z m 4.07063,-1.51446 c 0,-1.091406 0.0467,-1.53789 0.10378,-0.992187 0.0571,0.545703 0.0571,1.438672 0,1.984375 -0.0571,0.545703 -0.10378,0.09922 -0.10378,-0.992188 z m -5.43023,-3.091157 c 0.19099,-0.07643 0.41919,-0.06703 0.50712,0.02089 0.0879,0.08792 -0.0684,0.150453 -0.34727,0.138964 -0.30823,-0.0127 -0.37092,-0.07539 -0.15985,-0.159852 z"
         id="path963"
         inkscape:connector-curvature="0" />
      <path
         style="fill:#000000;stroke-width:0.26458332"
         d="m 167.64238,41.355784 c -0.0729,-0.189973 -0.0983,-1.827082 -0.0565,-3.638021 l 0.0761,-3.292615 0.13093,3.638466 c 0.072,2.001156 0.0974,3.638266 0.0565,3.638021 -0.0409,-2.45e-4 -0.13409,-0.155878 -0.20699,-0.345851 z m 26.60748,-0.812823 c 0,-0.05494 0.20836,-0.263301 0.46302,-0.46302 0.41965,-0.329108 0.42901,-0.31975 0.0999,0.09989 -0.34564,0.44073 -0.56292,0.580888 -0.56292,0.363126 z m -59.77494,-1.112778 c 0.0127,-0.308225 0.0754,-0.37092 0.15985,-0.159853 0.0764,0.190996 0.067,0.419199 -0.0209,0.507118 -0.0879,0.08792 -0.15046,-0.06835 -0.13897,-0.347265 z m -20.92297,-7.883055 c 0,-0.05494 0.20836,-0.263302 0.46302,-0.463021 0.41964,-0.329107 0.429,-0.319749 0.0999,0.0999 -0.34565,0.440729 -0.56292,0.580887 -0.56292,0.363126 z m 25.53416,-0.690825 c -0.0927,-0.149981 0.0135,-0.194338 0.24897,-0.103984 0.45837,0.175893 0.54224,0.365537 0.16165,0.365537 -0.13693,0 -0.32171,-0.117699 -0.41062,-0.261553 z m 60.72,-3.542508 c 0,-0.05494 0.20836,-0.263302 0.46302,-0.463021 0.41965,-0.329108 0.42901,-0.319749 0.0999,0.0999 -0.34564,0.440729 -0.56292,0.580887 -0.56292,0.363126 z"
         id="path961"
         inkscape:connector-curvature="0" />
      <path
         style="fill:#000000;stroke-width:0.26458332"
         d="m 189.6858,41.790544 c 0.1819,-0.0734 0.47956,-0.0734 0.66146,0 0.1819,0.0734 0.0331,0.133453 -0.33073,0.133453 -0.3638,0 -0.51263,-0.06005 -0.33073,-0.133453 z m 13.49375,0 c 0.1819,-0.0734 0.47956,-0.0734 0.66146,0 0.1819,0.0734 0.0331,0.133453 -0.33073,0.133453 -0.3638,0 -0.51263,-0.06005 -0.33073,-0.133453 z m -62.53571,-3.925813 c 5.3e-4,-2.037292 0.0419,-2.835754 0.0923,-1.774362 0.0503,1.061393 0.05,2.728268 -8e-4,3.704167 -0.0507,0.975899 -0.0919,0.107487 -0.0915,-1.929805 z m 5.76538,-0.05053 c -0.0269,-2.065084 0.0404,-3.810263 0.1495,-3.878177 0.10914,-0.06791 0.16683,1.026387 0.1282,2.431781 -0.1296,4.714847 -0.22838,5.229358 -0.2777,1.446396 z m 5.87771,-0.214052 c 2.7e-4,-2.182813 0.0413,-3.040574 0.0911,-1.906136 0.0497,1.134437 0.0494,2.920375 -7.9e-4,3.96875 -0.05,1.048375 -0.0906,0.120198 -0.0903,-2.062614 z m 2.12324,-1.719792 c 0,-3.128698 0.0383,-4.40862 0.085,-2.844271 0.0468,1.564349 0.0468,4.124193 0,5.688542 -0.0468,1.564349 -0.085,0.284427 -0.085,-2.844271 z m 11.10525,1.852084 c 0,-2.110053 0.0411,-2.973256 0.0913,-1.91823 0.0502,1.055026 0.0502,2.781433 0,3.836459 -0.0502,1.055026 -0.0913,0.191823 -0.0913,-1.918229 z m -41.1493,2.976562 c -0.32911,-0.419644 -0.31975,-0.429002 0.0999,-0.09989 0.25466,0.199719 0.46302,0.408079 0.46302,0.463021 0,0.217761 -0.21727,0.0776 -0.56291,-0.363126 z m 55.15953,-4.828646 c 0,-1.236927 0.0456,-1.742943 0.10128,-1.124479 0.0557,0.618464 0.0557,1.630495 0,2.248958 -0.0557,0.618464 -0.10128,0.112448 -0.10128,-1.124479 z m -62.59718,1.664954 c 0.32912,-0.06329 0.80537,-0.06088 1.05834,0.0053 0.25296,0.06622 -0.0163,0.118004 -0.5984,0.115067 -0.58209,-0.0029 -0.78906,-0.05712 -0.45994,-0.120406 z M 173.10409,35.9906 c 0.0127,-0.308224 0.0754,-0.370919 0.15985,-0.159852 0.0764,0.190996 0.067,0.419199 -0.0209,0.507118 -0.0879,0.08792 -0.15045,-0.06835 -0.13896,-0.347266 z m 24.60625,-0.529166 c 0.0127,-0.308225 0.0754,-0.37092 0.15985,-0.159853 0.0764,0.190996 0.067,0.419199 -0.0209,0.507118 -0.0879,0.08792 -0.15045,-0.06835 -0.13896,-0.347265 z m 5.46921,-0.814639 c 0.1819,-0.0734 0.47956,-0.0734 0.66146,0 0.1819,0.0734 0.0331,0.133452 -0.33073,0.133452 -0.3638,0 -0.51263,-0.06005 -0.33073,-0.133452 z m 21.01001,-1.147688 c 0,-0.363802 0.06,-0.51263 0.13345,-0.330729 0.0734,0.181901 0.0734,0.479557 0,0.661458 -0.0734,0.181901 -0.13345,0.03307 -0.13345,-0.330729 z m -26.45834,-0.264583 c 0,-0.363802 0.0601,-0.51263 0.13346,-0.330729 0.0734,0.181901 0.0734,0.479557 0,0.661458 -0.0734,0.181901 -0.13346,0.03307 -0.13346,-0.330729 z m -43.34662,-6.21771 c 0.001,-1.018645 0.049,-1.402943 0.10627,-0.853994 0.0573,0.548949 0.0563,1.382386 -0.002,1.852083 -0.0585,0.469697 -0.10533,0.02056 -0.10416,-0.998089 z m -42.36857,0.529167 c 0.005,-0.436562 0.0647,-0.583125 0.13177,-0.325694 0.0671,0.257431 0.0627,0.614619 -0.01,0.79375 -0.0725,0.179132 -0.12736,-0.03149 -0.12197,-0.468056 z m -5.47554,-1.984375 -5.29167,-0.149241 5.20991,-0.05767 c 3.25159,-0.03599 5.27137,0.04178 5.37343,0.206912 0.0899,0.145521 0.12673,0.238631 0.0818,0.206912 -0.045,-0.03172 -2.46301,-0.124829 -5.37343,-0.206912 z"
         id="path959"
         inkscape:connector-curvature="0" />
      <path
         style="fill:#000000;stroke-width:0.26458332"
         d="m 174.63695,40.444419 c -0.32911,-0.419644 -0.31975,-0.429003 0.0999,-0.0999 0.25467,0.199719 0.46302,0.408078 0.46302,0.463021 0,0.217761 -0.21727,0.0776 -0.56291,-0.363126 z m -58.41828,-5.776736 c 0.0127,-0.308225 0.0754,-0.37092 0.15985,-0.159853 0.0764,0.190996 0.067,0.419199 -0.0209,0.507118 -0.0879,0.08792 -0.15045,-0.06835 -0.13896,-0.347265 z"
         id="path957"
         inkscape:connector-curvature="0" />
      <path
         style="fill:#000000;stroke-width:0.26458332"
         d="m 199.50778,40.179835 c -0.32911,-0.419644 -0.31975,-0.429002 0.0999,-0.09989 0.44073,0.345643 0.58088,0.562915 0.36312,0.562915 -0.0549,0 -0.2633,-0.208359 -0.46302,-0.463021 z m 22.25875,0.09854 c 0,-0.05494 0.20836,-0.263302 0.46302,-0.463021 0.41965,-0.329107 0.429,-0.319749 0.0999,0.0999 -0.34565,0.440729 -0.56292,0.580887 -0.56292,0.363126 z m -97.89583,-4.7625 c 0,-0.05494 0.20836,-0.263302 0.46302,-0.463021 0.41964,-0.329107 0.429,-0.319749 0.0999,0.09989 -0.34564,0.440729 -0.56291,0.580887 -0.56291,0.363126 z m 70.7509,-1.289168 -0.50403,-0.595312 0.59531,0.504028 c 0.32743,0.277215 0.59532,0.545106 0.59532,0.595312 0,0.211734 -0.21294,0.05542 -0.6866,-0.504028 z m 18.54597,-7.077604 c 0.26339,-0.291042 0.53842,-0.529167 0.61118,-0.529167 0.0728,0 -0.0832,0.238125 -0.34659,0.529167 -0.26339,0.291042 -0.53843,0.529167 -0.61119,0.529167 -0.0728,0 0.0832,-0.238125 0.3466,-0.529167 z"
         id="path955"
         inkscape:connector-curvature="0" />
      <path
         style="fill:#000000;stroke-width:0.26458332"
         d="m 175.66278,45.745004 c -0.40024,-0.06063 -0.84195,-0.323706 -0.98159,-0.584618 -0.24669,-0.46096 -0.0844,-2.400863 0.20089,-2.400863 0.0782,0 0.89781,0.131594 1.82141,0.29243 1.4384,0.250487 1.77357,0.230638 2.33678,-0.138391 0.36163,-0.236952 0.65751,-0.666202 0.65751,-0.953889 0,-0.466137 -0.18292,-0.523067 -1.68066,-0.523067 -3.06532,0 -4.67459,-1.868199 -4.66353,-5.413875 0.009,-2.887388 1.02359,-4.631619 3.23045,-5.553705 1.34157,-0.560545 4.55065,-0.522354 5.75957,0.06854 l 0.92605,0.45263 0.071,6.152937 c 0.0805,6.975197 -2.4e-4,7.34873 -1.78574,8.259624 -0.80854,0.412487 -1.50464,0.522871 -3.1034,0.49212 -1.13358,-0.0218 -2.38853,-0.08925 -2.78877,-0.149876 z m 4.035,-9.864648 c 0,-2.363611 -0.005,-2.38125 -0.66146,-2.38125 -1.07548,0 -1.71979,0.870059 -1.71979,2.322379 0,1.594356 0.55544,2.440121 1.6025,2.440121 h 0.77875 z m -74.94323,5.638449 c -0.42361,-0.110701 -0.46302,-0.626042 -0.46302,-6.054724 v -5.933725 h -1.4459 c -1.15872,0 -1.50029,-0.101643 -1.71979,-0.511773 -0.30327,-0.56667 -0.35394,-1.940629 -0.10572,-2.86704 l 0.16094,-0.600688 5.32555,0.07152 5.32555,0.07152 0.0826,1.305382 c 0.14566,2.301168 -0.007,2.531076 -1.67517,2.531076 h -1.45017 v 5.811524 c 0,5.474895 -0.0296,5.82739 -0.51177,6.085417 -0.50588,0.270736 -2.62652,0.325817 -3.52313,0.09151 z m 10.51719,-0.233697 c -2.14299,-1.114552 -2.88023,-2.456084 -2.89746,-5.27246 -0.0113,-1.846653 0.08,-2.274782 0.71567,-3.356148 1.06898,-1.818475 2.07759,-2.434025 4.18319,-2.553002 2.81989,-0.159338 4.62673,1.076513 4.93509,3.375535 0.32034,2.388289 -1.31938,3.986176 -4.09222,3.987834 -1.46705,8.73e-4 -1.65364,0.05965 -1.65364,0.520847 0,1.045569 1.52336,1.346848 3.42235,0.676845 l 1.10764,-0.390798 0.38084,0.911466 c 0.54707,1.309318 0.50274,1.428165 -0.74365,1.993921 -1.41183,0.640855 -4.22247,0.69644 -5.35781,0.10596 z m 3.18429,-6.478123 c 0.0951,-0.153791 0.0998,-0.57051 0.0106,-0.926041 -0.23745,-0.946073 -1.64743,-0.92345 -2.01079,0.03226 -0.14192,0.373275 -0.25804,0.789993 -0.25804,0.926041 0,0.342051 2.04497,0.312836 2.25825,-0.03226 z m 6.73759,6.317034 c -2.01677,-1.358971 -2.44784,-4.240855 -0.87033,-5.818372 0.65938,-0.659376 1.12515,-0.837142 2.81461,-1.074211 2.04648,-0.28717 2.43592,-0.590646 1.62334,-1.265028 -0.27572,-0.228825 -0.85167,-0.279956 -1.84217,-0.163543 -1.25517,0.147521 -1.47643,0.103211 -1.71553,-0.343553 -0.15098,-0.282105 -0.27451,-0.809168 -0.27451,-1.171251 0,-0.859945 1.14224,-1.251519 3.67408,-1.259521 3.33583,-0.01054 4.26342,1.136047 4.26342,5.269997 v 2.317889 l 0.79375,0.299607 c 0.71493,0.269857 0.79375,0.414272 0.79375,1.454344 0,0.635105 -0.18534,1.419353 -0.41187,1.742775 -0.55849,0.797356 -1.93678,0.789943 -2.78736,-0.01499 l -0.63723,-0.60303 -0.72686,0.519947 c -0.45282,0.323919 -1.30071,0.560099 -2.24896,0.626446 -1.27001,0.08886 -1.67546,0.0032 -2.44813,-0.517504 z m 3.91857,-3.722309 c 0.0783,-0.945973 0.0448,-0.992187 -0.71829,-0.992187 -0.91329,0 -1.47975,0.756202 -1.20795,1.612571 0.13139,0.413969 0.35807,0.515963 1.00684,0.453027 0.75923,-0.07365 0.84494,-0.173714 0.9194,-1.073411 z m 8.05382,4.124251 c -0.24312,-0.0981 -0.33073,-1.143897 -0.33073,-3.947862 0,-3.625792 -0.0259,-3.81441 -0.52412,-3.81441 -0.8955,0 -1.06115,-2.353561 -0.23566,-3.34822 0.42538,-0.512557 1.55071,-0.436348 2.54957,0.172661 0.86245,0.525843 0.86521,0.525842 1.84816,-9.79e-4 1.20488,-0.645776 3.27416,-0.694367 4.27952,-0.100492 0.66548,0.393113 0.78884,0.393113 1.54903,0 0.46502,-0.240481 1.45877,-0.427136 2.27402,-0.427136 1.16963,0 1.60365,0.13093 2.25732,0.680957 1.1761,0.989621 1.38728,2.085682 1.29619,6.727376 l -0.0805,4.101042 -0.63673,0.08998 c -0.3502,0.04949 -1.15073,0.0129 -1.77895,-0.08131 l -1.14222,-0.171286 -0.0731,-3.88744 -0.0731,-3.88744 -0.68411,-0.07952 c -0.37626,-0.04374 -0.81924,0.0833 -0.98441,0.282317 -0.18355,0.221167 -0.32904,1.795018 -0.37422,4.048273 -0.0838,4.181049 -0.007,4.067353 -2.48962,3.695099 l -1.14221,-0.171286 -0.0731,-3.88744 c -0.0721,-3.832777 -0.0817,-3.888656 -0.683,-3.973897 -1.23774,-0.175462 -1.3745,0.257574 -1.3745,4.352187 v 3.804062 l -1.52136,-0.02089 c -0.83674,-0.01149 -1.67018,-0.08094 -1.85208,-0.154341 z m 17.58358,0.0097 c -0.10297,-0.102974 -0.18722,-2.727225 -0.18722,-5.83167 v -5.644444 h 1.98953 1.98953 l -0.0713,5.754687 -0.0713,5.754688 -1.731,0.07698 c -0.95205,0.04234 -1.81525,-0.0073 -1.91823,-0.110243 z m 8.081,-0.02282 -1.12447,-0.106642 v -3.802843 c 0,-3.742249 -0.01,-3.804191 -0.59532,-3.887391 -0.49973,-0.07097 -0.60877,-0.273188 -0.67914,-1.259531 -0.12072,-1.692138 0.33446,-2.396892 1.54807,-2.396892 0.57119,0 1.25259,0.216037 1.63827,0.519413 0.65619,0.516162 0.6667,0.516162 1.67912,0 1.16126,-0.592044 3.4094,-0.693933 4.48618,-0.20332 1.33875,0.609976 1.57007,1.507891 1.66682,6.470048 l 0.0885,4.537183 -1.07403,0.181457 c -0.59072,0.0998 -1.4338,0.102436 -1.87353,0.0059 l -0.7995,-0.175601 v -3.650747 c 0,-4.085721 -0.17933,-4.562418 -1.53716,-4.085987 l -0.7118,0.249753 -0.13229,3.830659 -0.13229,3.830659 -0.66146,0.02528 c -0.3638,0.01391 -1.16747,-0.02271 -1.78594,-0.08136 z m 24.40782,-0.0425 c -2.09867,-0.545738 -2.42301,-1.29102 -1.47271,-3.383985 l 0.50005,-1.101314 1.01549,0.362096 c 2.12877,0.759059 4.05821,0.247685 4.05821,-1.075579 0,-0.791385 -0.69413,-1.184931 -2.08996,-1.184931 -1.23399,0 -1.69679,-0.56661 -1.56391,-1.914741 0.0737,-0.747383 0.20645,-0.863545 1.30625,-1.142693 1.61617,-0.410206 1.81845,-0.558098 1.81845,-1.329478 0,-0.982112 -1.00412,-1.341651 -2.72679,-0.976366 -1.18402,0.251067 -1.42078,0.231543 -1.71039,-0.141046 -0.46375,-0.596613 -0.89266,-2.290414 -0.7043,-2.781282 0.48326,-1.259358 5.18476,-1.963522 7.41727,-1.110917 2.69507,1.029256 2.9827,4.26147 0.58024,6.52022 -0.57989,0.545199 -0.75768,0.86224 -0.53115,0.947171 0.64929,0.243434 1.92938,1.466706 2.31483,2.212092 0.88864,1.71843 0.0863,4.235454 -1.73401,5.440107 -0.96169,0.636417 -1.40079,0.739784 -3.3942,0.799018 -1.25929,0.03742 -2.64681,-0.02485 -3.08337,-0.138372 z m 14.1552,-0.05209 c -2.60394,-1.0887 -3.98593,-4.76487 -3.39745,-9.037438 0.62467,-4.535353 3.11334,-7.088789 6.9003,-7.079872 2.9059,0.0068 3.56334,0.750775 2.61618,2.960405 l -0.51934,1.211579 -1.69093,-0.135731 c -1.64664,-0.132176 -1.70957,-0.113571 -2.40296,0.710483 -0.39163,0.465418 -0.71205,1.126133 -0.71205,1.468256 0,0.594432 0.0634,0.615494 1.42918,0.474537 1.98271,-0.204634 3.19355,0.07918 4.23356,0.99232 2.18093,1.914889 1.67352,6.120552 -0.94774,7.85522 -0.89598,0.592932 -1.43689,0.736898 -2.97134,0.790844 -1.03177,0.03627 -2.1736,-0.0585 -2.53741,-0.210603 z m 3.55298,-3.572401 c 0.47157,-0.471573 0.54747,-1.754185 0.14798,-2.500651 -0.33802,-0.631593 -1.86779,-0.937836 -2.63465,-0.527426 -0.50358,0.269511 -0.55391,0.449141 -0.39593,1.413282 0.0995,0.60749 0.36507,1.312887 0.59006,1.567548 0.50855,0.57561 1.73882,0.600965 2.29254,0.04725 z m 10.88117,3.663 c -0.99277,-0.252572 -2.52871,-1.40774 -3.17642,-2.38896 -1.00296,-1.519364 -1.55797,-4.074673 -1.39699,-6.431818 0.17334,-2.5382 0.96803,-4.416264 2.44466,-5.777374 3.03961,-2.801818 7.83106,-1.809582 9.67718,2.003998 0.82376,1.70166 1.03077,5.9387 0.39672,8.119783 -0.51953,1.787109 -1.9141,3.468324 -3.46159,4.173105 -1.00967,0.459838 -3.26469,0.611361 -4.48356,0.301266 z m 3.15514,-4.672873 c 0.76364,-0.763642 1.03231,-2.029422 0.87941,-4.143217 -0.13957,-1.929428 -0.82357,-2.993302 -2.0003,-3.111196 -1.01101,-0.10129 -1.80973,0.687549 -2.21379,2.186398 -0.5016,1.860663 0.18067,5.132094 1.15181,5.522828 0.76958,0.309641 1.58918,0.138873 2.18287,-0.454813 z m -64.42053,-9.819145 v -1.719791 h 1.98437 1.98438 v 1.719791 1.719792 h -1.98438 -1.98437 z"
         id="path953"
         inkscape:connector-curvature="0" />
    </g>
    <text
       xml:space="preserve"
       style="font-style:normal;font-variant:normal;font-weight:normal;font-stretch:normal;font-size:11.28888893px;line-height:1.25;font-family:'Copperplate Gothic Bold';-inkscape-font-specification:'Copperplate Gothic Bold, ';letter-spacing:0px;word-spacing:0px;fill:#000000;fill-opacity:1;stroke:none;stroke-width:0.26458332"
       x="144.61363"
       y="60.1992"
       id="text969"><tspan
         sodipodi:role="line"
         x="144.61363"
         y="60.1992"
         style="font-style:normal;font-variant:normal;font-weight:normal;font-stretch:normal;font-size:11.28888893px;font-family:'Century Gothic';-inkscape-font-specification:'Century Gothic';stroke-width:0.26458332"
         id="tspan971">3ra fel!</tspan></text>
  </g>
</svg>
